<?xml version="1.0" encoding="UTF-8"?>
<svg version="1.1" xmlns="http://www.w3.org/2000/svg" width="50" height="50">
<path d="M0 0 C0.87785156 -0.00257812 1.75570313 -0.00515625 2.66015625 -0.0078125 C4.9375 0.125 4.9375 0.125 6.9375 1.125 C7.5975 0.795 8.2575 0.465 8.9375 0.125 C13.97421207 -0.42758891 17.85890903 -0.41429549 22.4375 1.875 C25.44334582 4.58026124 26.73378748 6.49794548 27.23828125 10.52734375 C27.27821173 19.16563795 27.27821173 19.16563795 23.9375 23.125 C22.9475 23.785 21.9575 24.445 20.9375 25.125 C20.20784634 27.68782742 20.20784634 27.68782742 19.9375 30.125 C18.2875 30.125 16.6375 30.125 14.9375 30.125 C14.9375 25.835 14.9375 21.545 14.9375 17.125 C13.62487429 18.21052366 13.62487429 18.21052366 13.83984375 20.84765625 C13.85144531 21.94980469 13.86304688 23.05195313 13.875 24.1875 C13.88402344 25.29222656 13.89304688 26.39695312 13.90234375 27.53515625 C13.91394531 28.38980469 13.92554688 29.24445312 13.9375 30.125 C11.9575 30.125 9.9775 30.125 7.9375 30.125 C7.9375 32.435 7.9375 34.745 7.9375 37.125 C10.9075 37.62 10.9075 37.62 13.9375 38.125 C13.9375 40.105 13.9375 42.085 13.9375 44.125 C7.9975 44.125 2.0575 44.125 -4.0625 44.125 C-4.0625 42.805 -4.0625 41.485 -4.0625 40.125 C-5.20138672 40.17720703 -5.20138672 40.17720703 -6.36328125 40.23046875 C-7.35714844 40.25753906 -8.35101563 40.28460938 -9.375 40.3125 C-10.36113281 40.34730469 -11.34726563 40.38210937 -12.36328125 40.41796875 C-15.0625 40.125 -15.0625 40.125 -16.90625 38.875 C-18.96219134 35.763305 -18.24137839 32.76219401 -18.0625 29.125 C-19.7125 28.795 -21.3625 28.465 -23.0625 28.125 C-21.1875 22.25 -21.1875 22.25 -20.0625 21.125 C-19.76618235 19.56713197 -19.50044981 18.0033965 -19.25 16.4375 C-18.05195211 10.30734254 -16.06033939 6.6335726 -11 2.8125 C-7.1253078 0.58661299 -4.39680062 -0.01295081 0 0 Z M1.9375 5.125 C2.9375 7.125 2.9375 7.125 2.9375 7.125 Z M0.9375 7.125 C1.9375 9.125 1.9375 9.125 1.9375 9.125 Z M-0.0625 10.125 C-0.0625 12.105 -0.0625 14.085 -0.0625 16.125 C0.2675 16.125 0.5975 16.125 0.9375 16.125 C0.9375 14.145 0.9375 12.165 0.9375 10.125 C0.6075 10.125 0.2775 10.125 -0.0625 10.125 Z M16.9375 11.125 C17.9375 13.125 17.9375 13.125 17.9375 13.125 Z M9.9375 12.125 C10.9375 15.125 10.9375 15.125 10.9375 15.125 Z M16.9375 14.125 C17.9375 16.125 17.9375 16.125 17.9375 16.125 Z " fill="#FFBD4A" transform="translate(23.0625,2.875)"/>
<path d="M0 0 C4.29 0 8.58 0 13 0 C13 1.65 13 3.3 13 5 C12 6 12 6 9.27734375 6.09765625 C7.62412109 6.08025391 7.62412109 6.08025391 5.9375 6.0625 C4.83277344 6.05347656 3.72804687 6.04445313 2.58984375 6.03515625 C1.30787109 6.01775391 1.30787109 6.01775391 0 6 C0 4.02 0 2.04 0 0 Z " fill="#FFBD49" transform="translate(31,34)"/>
</svg>
