<svg width="76" height="70" viewBox="0 0 76 70" fill="none" xmlns="http://www.w3.org/2000/svg">
<path d="M75.2891 14.4437C75.2891 16.5285 72.1751 17.9736 68.8528 17.7087L65.0577 17.4123L61.7407 26.9316C61.4133 27.8727 60.5295 28.5071 59.5312 28.5225L58.2002 28.5331L58.0703 17.21C40.5083 21.343 28.2649 38.8322 27.3185 51.481C26.2788 65.3881 40.4458 65.3881 40.4458 65.3881C28.2283 76.8257 6.26283 66.2979 20.8197 41.1611C30.5519 24.353 45.8992 18.0938 54.389 15.9672H54.3942C54.3995 15.9672 54.4044 15.9672 54.4097 15.9619C54.5502 15.9253 54.6436 15.7799 54.6124 15.6345C54.5811 15.4838 54.4409 15.39 54.2899 15.416H54.2744C54.2692 15.416 54.2643 15.416 54.259 15.4213C48.2073 16.513 42.2962 18.4886 36.6763 21.083C42.1662 18.2339 48.0099 15.9672 54.0823 14.574C54.0929 14.574 54.103 14.5688 54.1083 14.5688C54.233 14.5428 54.3215 14.4234 54.3057 14.2934C54.2903 14.1529 54.1652 14.0542 54.025 14.07C54.0145 14.07 54.0043 14.0753 53.9991 14.0753C35.6991 16.8306 14.6434 27.2338 8.07185 40.7614C0.65835 56.0307 11.3316 66.6625 11.3316 66.6625C1.06446 60.0066 -5.30402 39.7831 17.8308 24.5346C34.535 13.5234 47.6426 12.562 56.6613 11.9999L58.013 12.0259L57.8778 0.0216831L59.2087 0.00623738C60.207 -0.00431081 61.101 0.60937 61.4547 1.54515L65.1617 11.4646L68.8528 11.1734C69.1127 11.1527 69.3727 11.1421 69.6273 11.1421C72.643 11.1425 75.2891 12.5202 75.2891 14.4437Z" fill="#FC3C60"/>
<path d="M65.1616 11.4646L61.4547 1.54515C61.1013 0.60937 60.207 -0.00431081 59.2086 0.00623738L57.8777 0.0216831L58.0129 12.0259C58.0129 12.0259 61.2851 11.6104 65.1616 11.4646Z" fill="#FC3C60"/>
<path d="M27.319 51.4805C28.2653 38.8318 40.5087 21.3425 58.0707 17.2095C58.0707 17.2095 34.3516 19.8868 23.6071 45.618C19.4406 55.5959 22.3801 64.2179 32.0717 69.7199C35.0071 69.162 37.9331 67.7406 40.4466 65.388C40.4466 65.388 26.2792 65.3876 27.319 51.4805Z" fill="#FFBE4A"/>
<path d="M75.2891 14.4437C75.2891 16.5285 72.1751 17.9735 68.8528 17.7087L65.0577 17.4122C63.0197 17.3915 59.7964 17.277 58.5695 17.2303C58.5435 17.2303 58.5175 17.225 58.4968 17.225C58.3615 17.2096 58.2214 17.2043 58.0703 17.2096C62.0993 16.9862 75.2318 15.8993 72.5439 11.6104C74.1612 12.1717 75.2891 13.1907 75.2891 14.4437Z" fill="#FA6458"/>
<path d="M58.0706 17.2095L58.2005 28.5326L59.5315 28.522C60.5298 28.5066 61.4136 27.8722 61.7409 26.9311L65.058 17.4118C62.4982 17.3843 58.0706 17.2095 58.0706 17.2095Z" fill="#FC3C60"/>
<path d="M11.3323 66.6614C11.3323 66.6614 0.659048 56.0296 8.07254 40.7603C14.6441 27.2326 35.6994 16.8298 53.9998 14.0741C54.005 14.0741 54.0152 14.0688 54.0257 14.0688C54.0257 14.0688 32.4852 15.7939 18.9357 26.3955C5.38615 36.9972 4.31362 44.7215 4.50876 53.9497C4.60633 58.5705 7.88155 63.1262 11.1278 66.5231C11.1959 66.5695 11.2637 66.6169 11.3323 66.6614Z" fill="#FC3C60"/>
<path d="M43.1322 27.5657C43.1322 27.5657 30.1782 37.5736 29.9183 51.4807C29.6584 65.3877 42.1358 64.7379 45.9048 59.7991C45.9048 59.7991 35.134 59.2596 35.7669 46.9318C36.4002 34.604 43.1322 27.5657 43.1322 27.5657Z" fill="#FFBE4A"/>
<path opacity="0.35" d="M42.586 28.1997C39.811 31.5133 27.6192 47.2867 33.9711 61.5919C37.8917 64.2689 43.5696 62.8596 45.9053 59.7991C45.9053 59.7991 35.1344 59.2596 35.7673 46.9318C36.2902 36.7475 40.9725 30.1779 42.586 28.1997Z" fill="#FFBE4A"/>
<path d="M0.388684 47.9715C0.388684 47.9715 -0.625072 20.5783 47.075 11.1399C47.075 11.1399 19.4361 13.6308 8.34315 26.5259C-2.05473 38.6134 0.388684 47.9715 0.388684 47.9715Z" fill="#FFBE4A"/>
<path opacity="0.35" d="M0.388684 47.9715C0.388684 47.9715 -0.387362 26.9467 31.4949 15.3896C22.1078 17.7724 14.9908 21.3433 9.63418 25.1471C9.18362 25.5935 8.75114 26.052 8.34315 26.5263C-2.05473 38.6134 0.388684 47.9715 0.388684 47.9715Z" fill="#FFBE4A"/>
</svg>
