<svg width="16" height="9" viewBox="0 0 16 9" fill="none" xmlns="http://www.w3.org/2000/svg">
<path d="M1.31005 0.866747C0.879261 1.05342 0.671047 1.64216 0.879261 2.13039C0.951059 2.31707 1.81263 3.10684 4.19633 5.17463C5.96256 6.71828 7.49186 8.01783 7.59237 8.07526C7.70007 8.1327 7.96572 8.17578 8.18112 8.17578C8.39651 8.17578 8.66216 8.1327 8.76986 8.07526C8.87038 8.01783 10.414 6.70392 12.1946 5.15309C15.6912 2.10885 15.6625 2.13757 15.5476 1.52729C15.4471 0.981624 14.9086 0.644173 14.4491 0.845207C14.3198 0.895466 12.8839 2.10167 11.2612 3.52327C9.63143 4.93769 8.24573 6.10082 8.18112 6.10082C8.12368 6.10082 6.73798 4.93769 5.10816 3.52327C3.47835 2.10167 2.05675 0.902646 1.94905 0.852387C1.69776 0.73751 1.59006 0.74469 1.31005 0.866747Z" fill="#707070"/>
</svg>
