<svg width="221" height="70" viewBox="0 0 221 70" fill="none" xmlns="http://www.w3.org/2000/svg">
<path d="M75.2891 14.4437C75.2891 16.5285 72.1751 17.9736 68.8528 17.7087L65.0577 17.4123L61.7407 26.9316C61.4133 27.8727 60.5295 28.5071 59.5312 28.5225L58.2002 28.5331L58.0703 17.21C40.5083 21.343 28.2649 38.8322 27.3185 51.481C26.2788 65.3881 40.4458 65.3881 40.4458 65.3881C28.2283 76.8257 6.26283 66.2979 20.8197 41.1611C30.5519 24.353 45.8992 18.0938 54.389 15.9672H54.3942C54.3995 15.9672 54.4044 15.9672 54.4097 15.9619C54.5502 15.9253 54.6436 15.7799 54.6124 15.6345C54.5811 15.4838 54.4409 15.39 54.2899 15.416H54.2744C54.2692 15.416 54.2643 15.416 54.259 15.4213C48.2073 16.513 42.2962 18.4886 36.6763 21.083C42.1662 18.2339 48.0099 15.9672 54.0823 14.574C54.0929 14.574 54.103 14.5688 54.1083 14.5688C54.233 14.5428 54.3215 14.4234 54.3057 14.2934C54.2903 14.1529 54.1652 14.0542 54.025 14.07C54.0145 14.07 54.0043 14.0753 53.9991 14.0753C35.6991 16.8306 14.6434 27.2338 8.07185 40.7614C0.65835 56.0307 11.3316 66.6625 11.3316 66.6625C1.06446 60.0066 -5.30402 39.7831 17.8308 24.5346C34.535 13.5234 47.6426 12.562 56.6613 11.9999L58.013 12.0259L57.8778 0.0216831L59.2087 0.00623738C60.207 -0.00431081 61.101 0.60937 61.4547 1.54515L65.1617 11.4646L68.8528 11.1734C69.1127 11.1527 69.3727 11.1421 69.6273 11.1421C72.643 11.1425 75.2891 12.5202 75.2891 14.4437Z" fill="#FC3C60"/>
<path d="M65.1616 11.4646L61.4547 1.54515C61.1013 0.60937 60.207 -0.00431081 59.2086 0.00623738L57.8777 0.0216831L58.0129 12.0259C58.0129 12.0259 61.2851 11.6104 65.1616 11.4646Z" fill="#FC3C60"/>
<path d="M27.319 51.4805C28.2653 38.8318 40.5087 21.3425 58.0707 17.2095C58.0707 17.2095 34.3516 19.8868 23.6071 45.618C19.4406 55.5959 22.3801 64.2179 32.0717 69.7199C35.0071 69.162 37.9331 67.7406 40.4466 65.388C40.4466 65.388 26.2792 65.3876 27.319 51.4805Z" fill="#FFBE4A"/>
<path d="M75.2891 14.4437C75.2891 16.5285 72.1751 17.9735 68.8528 17.7087L65.0577 17.4122C63.0197 17.3915 59.7964 17.277 58.5695 17.2303C58.5435 17.2303 58.5175 17.225 58.4968 17.225C58.3615 17.2096 58.2214 17.2043 58.0703 17.2096C62.0993 16.9862 75.2318 15.8993 72.5439 11.6104C74.1612 12.1717 75.2891 13.1907 75.2891 14.4437Z" fill="#FA6458"/>
<path d="M58.0706 17.2095L58.2005 28.5326L59.5315 28.522C60.5298 28.5066 61.4136 27.8722 61.7409 26.9311L65.058 17.4118C62.4982 17.3843 58.0706 17.2095 58.0706 17.2095Z" fill="#FC3C60"/>
<path d="M11.3323 66.6614C11.3323 66.6614 0.659048 56.0296 8.07254 40.7603C14.6441 27.2326 35.6994 16.8298 53.9998 14.0741C54.005 14.0741 54.0152 14.0688 54.0257 14.0688C54.0257 14.0688 32.4852 15.7939 18.9357 26.3955C5.38615 36.9972 4.31362 44.7215 4.50876 53.9497C4.60633 58.5705 7.88155 63.1262 11.1278 66.5231C11.1959 66.5695 11.2637 66.6169 11.3323 66.6614Z" fill="#FC3C60"/>
<path d="M43.1322 27.5657C43.1322 27.5657 30.1782 37.5736 29.9183 51.4807C29.6584 65.3877 42.1358 64.7379 45.9048 59.7991C45.9048 59.7991 35.134 59.2596 35.7669 46.9318C36.4002 34.604 43.1322 27.5657 43.1322 27.5657Z" fill="#FFBE4A"/>
<path opacity="0.35" d="M42.586 28.1997C39.811 31.5133 27.6192 47.2867 33.9711 61.5919C37.8917 64.2689 43.5696 62.8596 45.9053 59.7991C45.9053 59.7991 35.1344 59.2596 35.7673 46.9318C36.2902 36.7475 40.9725 30.1779 42.586 28.1997Z" fill="#FFBE4A"/>
<path d="M0.388684 47.9715C0.388684 47.9715 -0.625072 20.5783 47.075 11.1399C47.075 11.1399 19.4361 13.6308 8.34315 26.5259C-2.05473 38.6134 0.388684 47.9715 0.388684 47.9715Z" fill="#FFBE4A"/>
<path opacity="0.35" d="M0.388684 47.9715C0.388684 47.9715 -0.387362 26.9467 31.4949 15.3896C22.1078 17.7724 14.9908 21.3433 9.63418 25.1471C9.18362 25.5935 8.75114 26.052 8.34315 26.5263C-2.05473 38.6134 0.388684 47.9715 0.388684 47.9715Z" fill="#FFBE4A"/>
<path d="M61.2435 37.5594C61.3147 37.5594 61.3717 37.5879 61.4144 37.6448C61.4713 37.6875 61.4998 37.7445 61.4998 37.8157V39.4601C61.4998 39.5313 61.4713 39.5953 61.4144 39.6523C61.3717 39.695 61.3147 39.7164 61.2435 39.7164H57.3141C57.2429 39.7164 57.2073 39.7519 57.2073 39.8231V52.2523C57.2073 52.3235 57.1788 52.3875 57.1218 52.4445C57.0791 52.4872 57.0222 52.5085 56.951 52.5085H54.9863C54.9151 52.5085 54.851 52.4872 54.7941 52.4445C54.7513 52.3875 54.73 52.3235 54.73 52.2523V39.8231C54.73 39.7519 54.6944 39.7164 54.6232 39.7164H50.8432C50.772 39.7164 50.708 39.695 50.651 39.6523C50.6083 39.5953 50.5869 39.5313 50.5869 39.4601V37.8157C50.5869 37.7445 50.6083 37.6875 50.651 37.6448C50.708 37.5879 50.772 37.5594 50.8432 37.5594H61.2435ZM68.7843 41.4248C69.9376 41.4248 70.8559 41.7665 71.5393 42.4499C72.2369 43.1333 72.5857 44.0658 72.5857 45.2475V52.2523C72.5857 52.3235 72.5572 52.3875 72.5003 52.4445C72.4576 52.4872 72.4006 52.5085 72.3294 52.5085H70.3647C70.2935 52.5085 70.2294 52.4872 70.1725 52.4445C70.1298 52.3875 70.1084 52.3235 70.1084 52.2523V45.7601C70.1084 45.1052 69.9233 44.5784 69.5532 44.1797C69.183 43.7669 68.6918 43.5604 68.0796 43.5604C67.4674 43.5604 66.9691 43.7597 66.5847 44.1584C66.2145 44.557 66.0294 45.0838 66.0294 45.7387V52.2523C66.0294 52.3235 66.001 52.3875 65.944 52.4445C65.9013 52.4872 65.8443 52.5085 65.7732 52.5085H63.8084C63.7372 52.5085 63.6732 52.4872 63.6162 52.4445C63.5735 52.3875 63.5521 52.3235 63.5521 52.2523V37.8157C63.5521 37.7445 63.5735 37.6875 63.6162 37.6448C63.6732 37.5879 63.7372 37.5594 63.8084 37.5594H65.7732C65.8443 37.5594 65.9013 37.5879 65.944 37.6448C66.001 37.6875 66.0294 37.7445 66.0294 37.8157V42.5353C66.0294 42.578 66.0437 42.6065 66.0721 42.6208C66.1006 42.635 66.122 42.6208 66.1362 42.578C66.7199 41.8092 67.6026 41.4248 68.7843 41.4248ZM80.2513 41.4675C80.7069 41.4675 81.1055 41.5601 81.4472 41.7452C81.5611 41.8021 81.6038 41.9089 81.5754 42.0655L81.2123 43.9875C81.1981 44.1584 81.0984 44.2082 80.9133 44.137C80.6998 44.0658 80.4506 44.0302 80.1659 44.0302C79.9808 44.0302 79.8384 44.0374 79.7388 44.0516C79.1408 44.0801 78.6425 44.2936 78.2438 44.6923C77.8452 45.0767 77.6459 45.5821 77.6459 46.2086V52.2523C77.6459 52.3235 77.6174 52.3875 77.5605 52.4445C77.5177 52.4872 77.4608 52.5085 77.3896 52.5085H75.4249C75.3537 52.5085 75.2896 52.4872 75.2327 52.4445C75.1899 52.3875 75.1686 52.3235 75.1686 52.2523V41.8519C75.1686 41.7808 75.1899 41.7238 75.2327 41.6811C75.2896 41.6242 75.3537 41.5957 75.4249 41.5957H77.3896C77.4608 41.5957 77.5177 41.6242 77.5605 41.6811C77.6174 41.7238 77.6459 41.7808 77.6459 41.8519V42.813C77.6459 42.8699 77.653 42.9055 77.6672 42.9197C77.6957 42.9197 77.7242 42.8984 77.7527 42.8557C78.3506 41.9303 79.1835 41.4675 80.2513 41.4675ZM84.6074 40.1008C84.166 40.1008 83.803 39.9584 83.5182 39.6736C83.2335 39.3889 83.0911 39.0258 83.0911 38.5845C83.0911 38.1431 83.2335 37.7801 83.5182 37.4953C83.803 37.2106 84.166 37.0682 84.6074 37.0682C85.0488 37.0682 85.4118 37.2106 85.6966 37.4953C85.9813 37.7801 86.1237 38.1431 86.1237 38.5845C86.1237 39.0258 85.9813 39.3889 85.6966 39.6736C85.4118 39.9584 85.0488 40.1008 84.6074 40.1008ZM83.5823 52.5085C83.5111 52.5085 83.4471 52.4872 83.3901 52.4445C83.3474 52.3875 83.326 52.3235 83.326 52.2523V41.8306C83.326 41.7594 83.3474 41.7025 83.3901 41.6597C83.4471 41.6028 83.5111 41.5743 83.5823 41.5743H85.5471C85.6182 41.5743 85.6752 41.6028 85.7179 41.6597C85.7749 41.7025 85.8033 41.7594 85.8033 41.8306V52.2523C85.8033 52.3235 85.7749 52.3875 85.7179 52.4445C85.6752 52.4872 85.6182 52.5085 85.5471 52.5085H83.5823ZM88.8974 52.5085C88.8263 52.5085 88.7622 52.4872 88.7052 52.4445C88.6625 52.3875 88.6412 52.3235 88.6412 52.2523V37.8157C88.6412 37.7445 88.6625 37.6875 88.7052 37.6448C88.7622 37.5879 88.8263 37.5594 88.8974 37.5594H90.8622C90.9334 37.5594 90.9903 37.5879 91.033 37.6448C91.09 37.6875 91.1185 37.7445 91.1185 37.8157V52.2523C91.1185 52.3235 91.09 52.3875 91.033 52.4445C90.9903 52.4872 90.9334 52.5085 90.8622 52.5085H88.8974ZM94.007 52.5085C93.9358 52.5085 93.8717 52.4872 93.8148 52.4445C93.7721 52.3875 93.7507 52.3235 93.7507 52.2523V37.8157C93.7507 37.7445 93.7721 37.6875 93.8148 37.6448C93.8717 37.5879 93.9358 37.5594 94.007 37.5594H95.9717C96.0429 37.5594 96.0999 37.5879 96.1426 37.6448C96.1995 37.6875 96.228 37.7445 96.228 37.8157V52.2523C96.228 52.3235 96.1995 52.3875 96.1426 52.4445C96.0999 52.4872 96.0429 52.5085 95.9717 52.5085H94.007ZM103.922 52.6794C102.811 52.6794 101.843 52.5014 101.017 52.1455C100.191 51.7896 99.5508 51.2913 99.0952 50.6506C98.6539 50.0099 98.4332 49.2553 98.4332 48.3869V47.853C98.4332 47.7818 98.4545 47.7248 98.4972 47.6821C98.5542 47.6252 98.6183 47.5967 98.6895 47.5967H100.59C100.661 47.5967 100.718 47.6252 100.761 47.6821C100.818 47.7248 100.846 47.7818 100.846 47.853V48.2587C100.846 48.9136 101.138 49.4618 101.722 49.9031C102.306 50.3302 103.103 50.5438 104.114 50.5438C104.982 50.5438 105.637 50.3587 106.079 49.9885C106.52 49.6184 106.741 49.1414 106.741 48.5577C106.741 48.1591 106.62 47.8245 106.378 47.554C106.136 47.2692 105.787 47.013 105.331 46.7852C104.89 46.5574 104.221 46.2726 103.324 45.9309C102.313 45.5608 101.494 45.2119 100.868 44.8845C100.241 44.557 99.7145 44.1157 99.2874 43.5604C98.8745 42.9909 98.6681 42.2862 98.6681 41.4462C98.6681 40.1933 99.1237 39.2038 100.035 38.4777C100.946 37.7516 102.163 37.3886 103.687 37.3886C104.755 37.3886 105.694 37.5736 106.506 37.9438C107.331 38.314 107.972 38.8336 108.428 39.5028C108.883 40.1577 109.111 40.9194 109.111 41.7879V42.1509C109.111 42.2221 109.083 42.2862 109.026 42.3431C108.983 42.3858 108.926 42.4072 108.855 42.4072H106.933C106.862 42.4072 106.798 42.3858 106.741 42.3431C106.698 42.2862 106.677 42.2221 106.677 42.1509V41.916C106.677 41.2469 106.399 40.6845 105.844 40.2289C105.303 39.7591 104.548 39.5242 103.58 39.5242C102.797 39.5242 102.185 39.6879 101.743 40.0153C101.316 40.3428 101.103 40.8055 101.103 41.4035C101.103 41.8306 101.217 42.1794 101.444 42.4499C101.672 42.7204 102.014 42.9696 102.469 43.1974C102.925 43.4109 103.63 43.6886 104.584 44.0302C105.595 44.4147 106.399 44.7635 106.997 45.0767C107.609 45.3899 108.129 45.8313 108.556 46.4008C108.997 46.956 109.218 47.6536 109.218 48.4936C109.218 49.775 108.741 50.793 107.787 51.5475C106.847 52.3021 105.559 52.6794 103.922 52.6794ZM120.682 45.8241C120.739 46.1801 120.768 46.5787 120.768 47.0201L120.746 47.6821C120.746 47.853 120.661 47.9384 120.49 47.9384H113.806C113.734 47.9384 113.699 47.974 113.699 48.0452C113.742 48.515 113.806 48.8353 113.891 49.0062C114.233 50.0313 115.066 50.5509 116.39 50.5652C117.358 50.5652 118.127 50.1665 118.696 49.3692C118.753 49.2838 118.824 49.2411 118.91 49.2411C118.967 49.2411 119.016 49.2624 119.059 49.3052L120.383 50.3943C120.511 50.494 120.533 50.6079 120.447 50.736C120.006 51.3624 119.415 51.8465 118.675 52.1882C117.949 52.5299 117.137 52.7007 116.24 52.7007C115.13 52.7007 114.183 52.4516 113.4 51.9533C112.631 51.455 112.069 50.7574 111.713 49.8604C111.385 49.0916 111.222 48.0238 111.222 46.657C111.222 45.8313 111.307 45.1621 111.478 44.6496C111.763 43.653 112.296 42.8699 113.079 42.3004C113.877 41.7167 114.831 41.4248 115.941 41.4248C118.746 41.4248 120.326 42.8913 120.682 45.8241ZM115.941 43.5604C115.414 43.5604 114.973 43.6957 114.617 43.9662C114.275 44.2225 114.033 44.5855 113.891 45.0553C113.806 45.2974 113.749 45.6106 113.72 45.995C113.692 46.0662 113.72 46.1018 113.806 46.1018H118.141C118.212 46.1018 118.248 46.0662 118.248 45.995C118.219 45.6391 118.176 45.3686 118.119 45.1835C117.991 44.6709 117.735 44.2723 117.351 43.9875C116.981 43.7028 116.511 43.5604 115.941 43.5604ZM132.236 45.8241C132.293 46.1801 132.322 46.5787 132.322 47.0201L132.3 47.6821C132.3 47.853 132.215 47.9384 132.044 47.9384H125.359C125.288 47.9384 125.253 47.974 125.253 48.0452C125.295 48.515 125.359 48.8353 125.445 49.0062C125.787 50.0313 126.619 50.5509 127.944 50.5652C128.912 50.5652 129.68 50.1665 130.25 49.3692C130.307 49.2838 130.378 49.2411 130.464 49.2411C130.52 49.2411 130.57 49.2624 130.613 49.3052L131.937 50.3943C132.065 50.494 132.087 50.6079 132.001 50.736C131.56 51.3624 130.969 51.8465 130.229 52.1882C129.503 52.5299 128.691 52.7007 127.794 52.7007C126.684 52.7007 125.737 52.4516 124.954 51.9533C124.185 51.455 123.623 50.7574 123.267 49.8604C122.939 49.0916 122.775 48.0238 122.775 46.657C122.775 45.8313 122.861 45.1621 123.032 44.6496C123.316 43.653 123.85 42.8699 124.633 42.3004C125.431 41.7167 126.385 41.4248 127.495 41.4248C130.3 41.4248 131.88 42.8913 132.236 45.8241ZM127.495 43.5604C126.968 43.5604 126.527 43.6957 126.171 43.9662C125.829 44.2225 125.587 44.5855 125.445 45.0553C125.359 45.2974 125.303 45.6106 125.274 45.995C125.246 46.0662 125.274 46.1018 125.359 46.1018H129.695C129.766 46.1018 129.802 46.0662 129.802 45.995C129.773 45.6391 129.73 45.3686 129.673 45.1835C129.545 44.6709 129.289 44.2723 128.905 43.9875C128.534 43.7028 128.065 43.5604 127.495 43.5604ZM134.842 52.5085C134.771 52.5085 134.707 52.4872 134.65 52.4445C134.607 52.3875 134.586 52.3235 134.586 52.2523V37.8157C134.586 37.7445 134.607 37.6875 134.65 37.6448C134.707 37.5879 134.771 37.5594 134.842 37.5594H136.807C136.878 37.5594 136.935 37.5879 136.977 37.6448C137.034 37.6875 137.063 37.7445 137.063 37.8157V45.5252C137.063 45.5679 137.077 45.5963 137.106 45.6106C137.134 45.6248 137.163 45.6106 137.191 45.5679L140.651 41.7452C140.75 41.6455 140.857 41.5957 140.971 41.5957H143.235C143.377 41.5957 143.448 41.6455 143.448 41.7452C143.448 41.7879 143.427 41.8448 143.384 41.916L140.672 45.1621C140.629 45.2048 140.622 45.2547 140.651 45.3116L143.854 52.2096C143.883 52.2665 143.897 52.3092 143.897 52.3377C143.897 52.4516 143.818 52.5085 143.662 52.5085H141.59C141.448 52.5085 141.348 52.4445 141.291 52.3163L138.964 46.8919C138.949 46.8635 138.921 46.8492 138.878 46.8492C138.85 46.835 138.828 46.8421 138.814 46.8706L137.106 48.8353C137.077 48.8923 137.063 48.9421 137.063 48.9848V52.2523C137.063 52.3235 137.034 52.3875 136.977 52.4445C136.935 52.4872 136.878 52.5085 136.807 52.5085H134.842ZM154.176 45.8241C154.233 46.1801 154.261 46.5787 154.261 47.0201L154.24 47.6821C154.24 47.853 154.155 47.9384 153.984 47.9384H147.299C147.228 47.9384 147.193 47.974 147.193 48.0452C147.235 48.515 147.299 48.8353 147.385 49.0062C147.726 50.0313 148.559 50.5509 149.883 50.5652C150.852 50.5652 151.62 50.1665 152.19 49.3692C152.247 49.2838 152.318 49.2411 152.403 49.2411C152.46 49.2411 152.51 49.2624 152.553 49.3052L153.877 50.3943C154.005 50.494 154.026 50.6079 153.941 50.736C153.5 51.3624 152.909 51.8465 152.168 52.1882C151.442 52.5299 150.631 52.7007 149.734 52.7007C148.623 52.7007 147.677 52.4516 146.894 51.9533C146.125 51.455 145.562 50.7574 145.206 49.8604C144.879 49.0916 144.715 48.0238 144.715 46.657C144.715 45.8313 144.801 45.1621 144.972 44.6496C145.256 43.653 145.79 42.8699 146.573 42.3004C147.371 41.7167 148.324 41.4248 149.435 41.4248C152.24 41.4248 153.82 42.8913 154.176 45.8241ZM149.435 43.5604C148.908 43.5604 148.467 43.6957 148.111 43.9662C147.769 44.2225 147.527 44.5855 147.385 45.0553C147.299 45.2974 147.242 45.6106 147.214 45.995C147.185 46.0662 147.214 46.1018 147.299 46.1018H151.635C151.706 46.1018 151.741 46.0662 151.741 45.995C151.713 45.6391 151.67 45.3686 151.613 45.1835C151.485 44.6709 151.229 44.2723 150.844 43.9875C150.474 43.7028 150.004 43.5604 149.435 43.5604ZM161.608 41.4675C162.064 41.4675 162.462 41.5601 162.804 41.7452C162.918 41.8021 162.961 41.9089 162.932 42.0655L162.569 43.9875C162.555 44.1584 162.455 44.2082 162.27 44.137C162.057 44.0658 161.807 44.0302 161.523 44.0302C161.338 44.0302 161.195 44.0374 161.096 44.0516C160.498 44.0801 159.999 44.2936 159.601 44.6923C159.202 45.0767 159.003 45.5821 159.003 46.2086V52.2523C159.003 52.3235 158.974 52.3875 158.917 52.4445C158.875 52.4872 158.818 52.5085 158.746 52.5085H156.782C156.711 52.5085 156.646 52.4872 156.589 52.4445C156.547 52.3875 156.525 52.3235 156.525 52.2523V41.8519C156.525 41.7808 156.547 41.7238 156.589 41.6811C156.646 41.6242 156.711 41.5957 156.782 41.5957H158.746C158.818 41.5957 158.875 41.6242 158.917 41.6811C158.974 41.7238 159.003 41.7808 159.003 41.8519V42.813C159.003 42.8699 159.01 42.9055 159.024 42.9197C159.053 42.9197 159.081 42.8984 159.109 42.8557C159.707 41.9303 160.54 41.4675 161.608 41.4675Z" fill="#FC3C60"/>
<path d="M178.889 37.5594C178.96 37.5594 179.017 37.5879 179.06 37.6448C179.117 37.6875 179.145 37.7445 179.145 37.8157V39.4601C179.145 39.5313 179.117 39.5953 179.06 39.6523C179.017 39.695 178.96 39.7164 178.889 39.7164H174.959C174.888 39.7164 174.852 39.7519 174.852 39.8231V52.2523C174.852 52.3235 174.824 52.3875 174.767 52.4445C174.724 52.4872 174.667 52.5085 174.596 52.5085H172.631C172.56 52.5085 172.496 52.4872 172.439 52.4445C172.397 52.3875 172.375 52.3235 172.375 52.2523V39.8231C172.375 39.7519 172.34 39.7164 172.268 39.7164H168.488C168.417 39.7164 168.353 39.695 168.296 39.6523C168.253 39.5953 168.232 39.5313 168.232 39.4601V37.8157C168.232 37.7445 168.253 37.6875 168.296 37.6448C168.353 37.5879 168.417 37.5594 168.488 37.5594H178.889ZM184.142 52.6794C183.018 52.6794 182.049 52.3946 181.238 51.8252C180.441 51.2557 179.878 50.4655 179.551 49.4547C179.309 48.6858 179.188 47.8743 179.188 47.0201C179.188 46.1089 179.302 45.2974 179.529 44.5855C179.857 43.5889 180.426 42.813 181.238 42.2577C182.049 41.7025 183.025 41.4248 184.164 41.4248C185.246 41.4248 186.178 41.7025 186.961 42.2577C187.759 42.813 188.321 43.5818 188.648 44.5641C188.905 45.2475 189.033 46.0591 189.033 46.9987C189.033 47.8957 188.912 48.7072 188.67 49.4333C188.342 50.4441 187.78 51.2414 186.983 51.8252C186.185 52.3946 185.239 52.6794 184.142 52.6794ZM184.142 50.5438C184.669 50.5438 185.118 50.3943 185.488 50.0953C185.872 49.7963 186.15 49.3763 186.321 48.8353C186.463 48.3655 186.534 47.7675 186.534 47.0414C186.534 46.2726 186.463 45.6747 186.321 45.2475C186.164 44.7065 185.893 44.2936 185.509 44.0089C185.125 43.7099 184.655 43.5604 184.1 43.5604C183.573 43.5604 183.117 43.7099 182.733 44.0089C182.348 44.2936 182.071 44.7065 181.9 45.2475C181.758 45.7458 181.686 46.3438 181.686 47.0414C181.686 47.7391 181.758 48.337 181.9 48.8353C182.057 49.3763 182.327 49.7963 182.711 50.0953C183.11 50.3943 183.587 50.5438 184.142 50.5438ZM197.824 41.8519C197.824 41.7808 197.846 41.7238 197.888 41.6811C197.945 41.6242 198.009 41.5957 198.081 41.5957H200.024C200.095 41.5957 200.152 41.6242 200.195 41.6811C200.252 41.7238 200.28 41.7808 200.28 41.8519V52.2523C200.28 52.3235 200.252 52.3875 200.195 52.4445C200.152 52.4872 200.095 52.5085 200.024 52.5085H198.081C198.009 52.5085 197.945 52.4872 197.888 52.4445C197.846 52.3875 197.824 52.3235 197.824 52.2523V51.5689C197.824 51.5262 197.81 51.4977 197.782 51.4835C197.753 51.4692 197.725 51.4835 197.696 51.5262C197.112 52.2807 196.237 52.658 195.069 52.658C193.987 52.658 193.076 52.3448 192.336 51.7184C191.61 51.0919 191.247 50.2021 191.247 49.0489V41.8519C191.247 41.7808 191.268 41.7238 191.311 41.6811C191.368 41.6242 191.432 41.5957 191.503 41.5957H193.468C193.539 41.5957 193.596 41.6242 193.638 41.6811C193.695 41.7238 193.724 41.7808 193.724 41.8519V48.3441C193.724 49.0133 193.895 49.5472 194.236 49.9458C194.592 50.3445 195.084 50.5438 195.71 50.5438C196.351 50.5438 196.863 50.3445 197.248 49.9458C197.632 49.5472 197.824 49.0133 197.824 48.3441V41.8519ZM208.011 41.4675C208.467 41.4675 208.866 41.5601 209.207 41.7452C209.321 41.8021 209.364 41.9089 209.335 42.0655L208.972 43.9875C208.958 44.1584 208.858 44.2082 208.673 44.137C208.46 44.0658 208.211 44.0302 207.926 44.0302C207.741 44.0302 207.598 44.0374 207.499 44.0516C206.901 44.0801 206.403 44.2936 206.004 44.6923C205.605 45.0767 205.406 45.5821 205.406 46.2086V52.2523C205.406 52.3235 205.377 52.3875 205.32 52.4445C205.278 52.4872 205.221 52.5085 205.15 52.5085H203.185C203.114 52.5085 203.05 52.4872 202.993 52.4445C202.95 52.3875 202.929 52.3235 202.929 52.2523V41.8519C202.929 41.7808 202.95 41.7238 202.993 41.6811C203.05 41.6242 203.114 41.5957 203.185 41.5957H205.15C205.221 41.5957 205.278 41.6242 205.32 41.6811C205.377 41.7238 205.406 41.7808 205.406 41.8519V42.813C205.406 42.8699 205.413 42.9055 205.427 42.9197C205.456 42.9197 205.484 42.8984 205.513 42.8557C206.111 41.9303 206.944 41.4675 208.011 41.4675ZM214.89 52.6367C213.993 52.6367 213.203 52.5085 212.52 52.2523C211.851 51.9818 211.331 51.6187 210.961 51.1631C210.591 50.6933 210.406 50.1736 210.406 49.6041V49.4119C210.406 49.3408 210.427 49.2838 210.47 49.2411C210.527 49.1841 210.591 49.1557 210.662 49.1557H212.541C212.612 49.1557 212.669 49.1841 212.712 49.2411C212.769 49.2838 212.798 49.3408 212.798 49.4119V49.4547C212.798 49.8106 212.99 50.1238 213.374 50.3943C213.773 50.6506 214.271 50.7787 214.869 50.7787C215.439 50.7787 215.901 50.6648 216.257 50.437C216.613 50.195 216.791 49.896 216.791 49.5401C216.791 49.2126 216.642 48.9706 216.343 48.814C216.058 48.6431 215.588 48.4652 214.933 48.2801L214.122 48.0238C213.396 47.8102 212.783 47.5824 212.285 47.3404C211.787 47.0984 211.367 46.7709 211.025 46.358C210.683 45.9309 210.512 45.3899 210.512 44.735C210.512 43.7384 210.904 42.9482 211.687 42.3645C212.47 41.7665 213.502 41.4675 214.784 41.4675C215.652 41.4675 216.414 41.6099 217.069 41.8947C217.724 42.1652 218.229 42.5496 218.585 43.0479C218.941 43.5319 219.119 44.0872 219.119 44.7136C219.119 44.7848 219.09 44.8489 219.033 44.9058C218.991 44.9486 218.934 44.9699 218.863 44.9699H217.047C216.976 44.9699 216.912 44.9486 216.855 44.9058C216.812 44.8489 216.791 44.7848 216.791 44.7136C216.791 44.3435 216.606 44.0374 216.236 43.7953C215.88 43.5391 215.389 43.4109 214.762 43.4109C214.207 43.4109 213.751 43.5177 213.396 43.7313C213.054 43.9306 212.883 44.2153 212.883 44.5855C212.883 44.9272 213.047 45.1906 213.374 45.3757C213.716 45.5465 214.278 45.7387 215.061 45.9523L215.531 46.0804C216.286 46.3082 216.919 46.5431 217.432 46.7852C217.944 47.013 218.379 47.3404 218.735 47.7675C219.09 48.1804 219.268 48.7214 219.268 49.3906C219.268 50.4014 218.87 51.1987 218.072 51.7824C217.275 52.3519 216.215 52.6367 214.89 52.6367Z" fill="#FFBE4A"/>
<path d="M51.1027 61.181C50.8248 61.181 50.583 61.1377 50.3773 61.0511C50.1752 60.9645 50.0182 60.8418 49.9063 60.683C49.7981 60.5242 49.7439 60.3383 49.7439 60.1254V59.9684C49.7439 59.9323 49.762 59.9143 49.7981 59.9143H50.1932C50.2293 59.9143 50.2474 59.9323 50.2474 59.9684V60.0983C50.2474 60.2824 50.3268 60.434 50.4855 60.5531C50.6443 60.6722 50.8627 60.7317 51.1406 60.7317C51.3896 60.7317 51.5772 60.6794 51.7035 60.5747C51.8298 60.4701 51.893 60.3329 51.893 60.1633C51.893 60.0514 51.8605 59.9558 51.7956 59.8764C51.7306 59.797 51.635 59.7248 51.5087 59.6599C51.386 59.5913 51.2055 59.5101 50.9673 59.4163C50.7039 59.3152 50.4946 59.2232 50.3394 59.1402C50.1878 59.0572 50.0615 58.9489 49.9605 58.8154C49.8594 58.6783 49.8089 58.5068 49.8089 58.3011C49.8089 57.9908 49.919 57.7472 50.1391 57.5703C50.3628 57.3935 50.6642 57.3051 51.0431 57.3051C51.3102 57.3051 51.5447 57.3502 51.7468 57.4404C51.9489 57.5306 52.1041 57.6569 52.2124 57.8193C52.3243 57.9817 52.3802 58.1694 52.3802 58.3823V58.4906C52.3802 58.5267 52.3622 58.5447 52.3261 58.5447H51.9201C51.884 58.5447 51.8659 58.5267 51.8659 58.4906V58.4094C51.8659 58.2217 51.7902 58.0666 51.6386 57.9439C51.4906 57.8175 51.2849 57.7544 51.0215 57.7544C50.7977 57.7544 50.6245 57.8013 50.5018 57.8951C50.3791 57.9854 50.3177 58.1171 50.3177 58.2903C50.3177 58.4094 50.3484 58.5068 50.4098 58.5826C50.4711 58.6584 50.5613 58.727 50.6804 58.7883C50.8031 58.8461 50.989 58.9219 51.238 59.0157C51.4942 59.1167 51.7017 59.2106 51.8605 59.2972C52.0193 59.3802 52.151 59.4921 52.2557 59.6328C52.3604 59.7699 52.4127 59.9414 52.4127 60.1471C52.4127 60.4646 52.2954 60.7173 52.0608 60.9049C51.8298 61.089 51.5105 61.181 51.1027 61.181ZM53.17 61.1377C53.1339 61.1377 53.1158 61.1197 53.1158 61.0836V57.4025C53.1158 57.3664 53.1339 57.3484 53.17 57.3484H53.5814C53.6174 57.3484 53.6355 57.3664 53.6355 57.4025V60.6667C53.6355 60.6812 53.6427 60.6884 53.6571 60.6884H55.5247C55.5608 60.6884 55.5789 60.7064 55.5789 60.7425V61.0836C55.5789 61.1197 55.5608 61.1377 55.5247 61.1377H53.17ZM57.4109 61.1864C57.1474 61.1864 56.9147 61.1323 56.7126 61.024C56.5105 60.9158 56.3535 60.7642 56.2416 60.5693C56.1297 60.3708 56.0738 60.1435 56.0738 59.8872V58.5989C56.0738 58.3426 56.1297 58.1171 56.2416 57.9222C56.3535 57.7273 56.5105 57.5757 56.7126 57.4675C56.9147 57.3592 57.1474 57.3051 57.4109 57.3051C57.6779 57.3051 57.9125 57.3592 58.1146 57.4675C58.3167 57.5757 58.4737 57.7273 58.5856 57.9222C58.6974 58.1171 58.7534 58.3426 58.7534 58.5989V59.8872C58.7534 60.1435 58.6974 60.3708 58.5856 60.5693C58.4737 60.7642 58.3167 60.9158 58.1146 61.024C57.9125 61.1323 57.6779 61.1864 57.4109 61.1864ZM57.4109 60.7371C57.6563 60.7371 57.8548 60.6613 58.0063 60.5098C58.1579 60.3582 58.2337 60.1579 58.2337 59.9089V58.5934C58.2337 58.3408 58.1579 58.1387 58.0063 57.9872C57.8548 57.832 57.6563 57.7544 57.4109 57.7544C57.1655 57.7544 56.967 57.832 56.8154 57.9872C56.6675 58.1387 56.5935 58.3408 56.5935 58.5934V59.9089C56.5935 60.1579 56.6675 60.3582 56.8154 60.5098C56.967 60.6613 57.1655 60.7371 57.4109 60.7371ZM60.7621 61.181C60.5023 61.181 60.2713 61.1305 60.0692 61.0294C59.8707 60.9248 59.7155 60.7786 59.6037 60.591C59.4954 60.3997 59.4413 60.1813 59.4413 59.9359V58.5501C59.4413 58.3011 59.4954 58.0828 59.6037 57.8951C59.7155 57.7075 59.8707 57.5631 60.0692 57.4621C60.2713 57.3574 60.5023 57.3051 60.7621 57.3051C61.0219 57.3051 61.2511 57.3556 61.4496 57.4567C61.6481 57.5577 61.8014 57.6984 61.9097 57.8789C62.0216 58.0557 62.0775 58.256 62.0775 58.4798V58.5393C62.0775 58.5754 62.0595 58.5934 62.0234 58.5934H61.612C61.5759 58.5934 61.5578 58.5754 61.5578 58.5393V58.4906C61.5578 58.2741 61.4839 58.099 61.3359 57.9655C61.1916 57.8284 61.0003 57.7598 60.7621 57.7598C60.5203 57.7598 60.3254 57.8302 60.1775 57.9709C60.0331 58.1117 59.9609 58.2993 59.9609 58.5339V59.9522C59.9609 60.1868 60.0367 60.3744 60.1883 60.5152C60.3399 60.6559 60.5383 60.7263 60.7837 60.7263C61.0219 60.7263 61.2096 60.6649 61.3467 60.5422C61.4875 60.4159 61.5578 60.2445 61.5578 60.028V59.6111C61.5578 59.5967 61.5506 59.5895 61.5362 59.5895H60.8054C60.7693 59.5895 60.7513 59.5714 60.7513 59.5354V59.1997C60.7513 59.1636 60.7693 59.1456 60.8054 59.1456H62.0234C62.0595 59.1456 62.0775 59.1636 62.0775 59.1997V59.8872C62.0775 60.3022 61.9584 60.6216 61.7202 60.8454C61.4857 61.0691 61.1663 61.181 60.7621 61.181ZM65.1329 61.1377C65.1004 61.1377 65.0788 61.1233 65.0679 61.0944L64.8731 60.461C64.8695 60.4502 64.8622 60.4448 64.8514 60.4448H63.3303C63.3195 60.4448 63.3122 60.4502 63.3086 60.461L63.1137 61.0944C63.1029 61.1233 63.0813 61.1377 63.0488 61.1377H62.6103C62.5706 61.1377 62.5562 61.1178 62.567 61.0781L63.7525 57.3917C63.7633 57.3628 63.785 57.3484 63.8175 57.3484H64.3588C64.3913 57.3484 64.4129 57.3628 64.4238 57.3917L65.6201 61.0781L65.6255 61.0998C65.6255 61.1251 65.6093 61.1377 65.5768 61.1377H65.1329ZM63.444 60.0063C63.4404 60.0135 63.4404 60.0208 63.444 60.028C63.4512 60.0316 63.4584 60.0334 63.4656 60.0334H64.7107C64.7179 60.0334 64.7233 60.0316 64.7269 60.028C64.7341 60.0208 64.7359 60.0135 64.7323 60.0063L64.1044 57.998C64.1008 57.9908 64.0954 57.9872 64.0881 57.9872C64.0809 57.9872 64.0755 57.9908 64.0719 57.998L63.444 60.0063ZM68.4723 57.4025C68.4723 57.3664 68.4903 57.3484 68.5264 57.3484H68.9378C68.9739 57.3484 68.992 57.3664 68.992 57.4025V61.0836C68.992 61.1197 68.9739 61.1377 68.9378 61.1377H68.5426C68.5174 61.1377 68.4957 61.1251 68.4777 61.0998L66.7833 58.3336C66.7797 58.3228 66.7743 58.3192 66.7671 58.3228C66.7599 58.3228 66.7563 58.3282 66.7563 58.339L66.7617 61.0836C66.7617 61.1197 66.7436 61.1377 66.7075 61.1377H66.2961C66.26 61.1377 66.242 61.1197 66.242 61.0836V57.4025C66.242 57.3664 66.26 57.3484 66.2961 57.3484H66.6967C66.722 57.3484 66.7436 57.361 66.7617 57.3863L68.4506 60.1525C68.4542 60.1633 68.4596 60.1687 68.4669 60.1687C68.4741 60.1651 68.4777 60.1579 68.4777 60.1471L68.4723 57.4025ZM72.186 61.1864C71.9262 61.1864 71.6952 61.1359 71.4931 61.0348C71.2947 60.9302 71.1395 60.784 71.0276 60.5964C70.9193 60.4051 70.8652 60.1868 70.8652 59.9414V58.5393C70.8652 58.2939 70.9193 58.0792 71.0276 57.8951C71.1395 57.7075 71.2947 57.5631 71.4931 57.4621C71.6952 57.3574 71.9262 57.3051 72.186 57.3051C72.4459 57.3051 72.6751 57.3556 72.8735 57.4567C73.072 57.5541 73.2254 57.693 73.3337 57.8735C73.4455 58.0539 73.5015 58.2632 73.5015 58.5014V58.5068C73.5015 58.5249 73.4961 58.5393 73.4852 58.5501C73.4744 58.561 73.4618 58.5664 73.4473 58.5664L73.0359 58.588C72.9998 58.588 72.9818 58.5718 72.9818 58.5393V58.5231C72.9818 58.2921 72.9096 58.1063 72.7653 57.9655C72.6209 57.8248 72.4278 57.7544 72.186 57.7544C71.9443 57.7544 71.7494 57.8248 71.6014 57.9655C71.4571 58.1063 71.3849 58.2921 71.3849 58.5231V59.963C71.3849 60.194 71.4571 60.3798 71.6014 60.5206C71.7494 60.6613 71.9443 60.7317 72.186 60.7317C72.4278 60.7317 72.6209 60.6613 72.7653 60.5206C72.9096 60.3798 72.9818 60.194 72.9818 59.963V59.9522C72.9818 59.9197 72.9998 59.9035 73.0359 59.9035L73.4473 59.9251C73.4834 59.9251 73.5015 59.9432 73.5015 59.9793C73.5015 60.2174 73.4455 60.4286 73.3337 60.6126C73.2254 60.793 73.072 60.9338 72.8735 61.0348C72.6751 61.1359 72.4459 61.1864 72.186 61.1864ZM75.4904 61.1864C75.227 61.1864 74.9942 61.1323 74.7921 61.024C74.59 60.9158 74.433 60.7642 74.3212 60.5693C74.2093 60.3708 74.1534 60.1435 74.1534 59.8872V58.5989C74.1534 58.3426 74.2093 58.1171 74.3212 57.9222C74.433 57.7273 74.59 57.5757 74.7921 57.4675C74.9942 57.3592 75.227 57.3051 75.4904 57.3051C75.7575 57.3051 75.9921 57.3592 76.1942 57.4675C76.3963 57.5757 76.5533 57.7273 76.6651 57.9222C76.777 58.1171 76.8329 58.3426 76.8329 58.5989V59.8872C76.8329 60.1435 76.777 60.3708 76.6651 60.5693C76.5533 60.7642 76.3963 60.9158 76.1942 61.024C75.9921 61.1323 75.7575 61.1864 75.4904 61.1864ZM75.4904 60.7371C75.7358 60.7371 75.9343 60.6613 76.0859 60.5098C76.2375 60.3582 76.3133 60.1579 76.3133 59.9089V58.5934C76.3133 58.3408 76.2375 58.1387 76.0859 57.9872C75.9343 57.832 75.7358 57.7544 75.4904 57.7544C75.245 57.7544 75.0466 57.832 74.895 57.9872C74.747 58.1387 74.673 58.3408 74.673 58.5934V59.9089C74.673 60.1579 74.747 60.3582 74.895 60.5098C75.0466 60.6613 75.245 60.7371 75.4904 60.7371ZM80.0759 57.3809C80.0939 57.3592 80.1156 57.3484 80.1408 57.3484H80.5523C80.5883 57.3484 80.6064 57.3664 80.6064 57.4025V61.0836C80.6064 61.1197 80.5883 61.1377 80.5523 61.1377H80.1408C80.1048 61.1377 80.0867 61.1197 80.0867 61.0836V58.312C80.0867 58.3011 80.0831 58.2939 80.0759 58.2903C80.0687 58.2867 80.0633 58.2903 80.0596 58.3011L79.2855 59.4812C79.2711 59.5029 79.2495 59.5137 79.2206 59.5137H79.0149C78.9896 59.5137 78.968 59.5029 78.9499 59.4812L78.1704 58.312C78.1668 58.3011 78.1614 58.2975 78.1542 58.3011C78.1469 58.3047 78.1433 58.312 78.1433 58.3228V61.0836C78.1433 61.1197 78.1253 61.1377 78.0892 61.1377H77.6778C77.6417 61.1377 77.6237 61.1197 77.6237 61.0836V57.4025C77.6237 57.3664 77.6417 57.3484 77.6778 57.3484H78.0892C78.1181 57.3484 78.1397 57.3592 78.1542 57.3809L79.1015 58.7992C79.1051 58.8028 79.1105 58.8046 79.1177 58.8046C79.1249 58.8046 79.1304 58.8028 79.134 58.7992L80.0759 57.3809ZM82.9766 57.343C83.1967 57.343 83.3898 57.3899 83.5558 57.4837C83.7254 57.5739 83.8553 57.7021 83.9455 57.8681C84.0394 58.0341 84.0863 58.2253 84.0863 58.4419C84.0863 58.6584 84.0394 58.8479 83.9455 59.0103C83.8517 59.1727 83.7182 59.299 83.545 59.3892C83.3753 59.4794 83.1787 59.5245 82.9549 59.5245H82.0022C81.9877 59.5245 81.9805 59.5318 81.9805 59.5462V61.0836C81.9805 61.1197 81.9625 61.1377 81.9264 61.1377H81.515C81.4789 61.1377 81.4608 61.1197 81.4608 61.0836V57.3971C81.4608 57.361 81.4789 57.343 81.515 57.343H82.9766ZM82.9062 59.1023C83.1047 59.1023 83.2635 59.0428 83.3826 58.9237C83.5053 58.8046 83.5666 58.6476 83.5666 58.4527C83.5666 58.2542 83.5053 58.0954 83.3826 57.9763C83.2635 57.8536 83.1047 57.7923 82.9062 57.7923H82.0022C81.9877 57.7923 81.9805 57.7995 81.9805 57.8139V59.0806C81.9805 59.0951 81.9877 59.1023 82.0022 59.1023H82.9062ZM86.8125 61.1377C86.78 61.1377 86.7584 61.1233 86.7476 61.0944L86.5527 60.461C86.5491 60.4502 86.5419 60.4448 86.531 60.4448H85.0099C84.9991 60.4448 84.9918 60.4502 84.9882 60.461L84.7934 61.0944C84.7825 61.1233 84.7609 61.1377 84.7284 61.1377H84.2899C84.2502 61.1377 84.2358 61.1178 84.2466 61.0781L85.4321 57.3917C85.443 57.3628 85.4646 57.3484 85.4971 57.3484H86.0384C86.0709 57.3484 86.0926 57.3628 86.1034 57.3917L87.2997 61.0781L87.3051 61.0998C87.3051 61.1251 87.2889 61.1377 87.2564 61.1377H86.8125ZM85.1236 60.0063C85.12 60.0135 85.12 60.0208 85.1236 60.028C85.1308 60.0316 85.138 60.0334 85.1452 60.0334H86.3903C86.3975 60.0334 86.4029 60.0316 86.4065 60.028C86.4137 60.0208 86.4155 60.0135 86.4119 60.0063L85.784 57.998C85.7804 57.9908 85.775 57.9872 85.7678 57.9872C85.7605 57.9872 85.7551 57.9908 85.7515 57.998L85.1236 60.0063ZM90.1519 57.4025C90.1519 57.3664 90.1699 57.3484 90.206 57.3484H90.6174C90.6535 57.3484 90.6716 57.3664 90.6716 57.4025V61.0836C90.6716 61.1197 90.6535 61.1377 90.6174 61.1377H90.2223C90.197 61.1377 90.1753 61.1251 90.1573 61.0998L88.4629 58.3336C88.4593 58.3228 88.4539 58.3192 88.4467 58.3228C88.4395 58.3228 88.4359 58.3282 88.4359 58.339L88.4413 61.0836C88.4413 61.1197 88.4232 61.1377 88.3872 61.1377H87.9757C87.9397 61.1377 87.9216 61.1197 87.9216 61.0836V57.4025C87.9216 57.3664 87.9397 57.3484 87.9757 57.3484H88.3763C88.4016 57.3484 88.4232 57.361 88.4413 57.3863L90.1302 60.1525C90.1338 60.1633 90.1393 60.1687 90.1465 60.1687C90.1537 60.1651 90.1573 60.1579 90.1573 60.1471L90.1519 57.4025ZM92.495 61.1323C92.4589 61.1323 92.4409 61.1142 92.4409 61.0781V59.557C92.4409 59.5426 92.4391 59.5336 92.4355 59.5299L91.3095 57.4133C91.3059 57.4061 91.3041 57.3971 91.3041 57.3863C91.3041 57.361 91.3185 57.3484 91.3474 57.3484H91.7913C91.8238 57.3484 91.8454 57.361 91.8563 57.3863L92.6845 58.9724C92.6881 58.9796 92.6935 58.9832 92.7007 58.9832C92.708 58.9832 92.7134 58.9796 92.717 58.9724L93.5452 57.3863C93.556 57.361 93.5777 57.3484 93.6102 57.3484H94.0595C94.0775 57.3484 94.0902 57.3556 94.0974 57.37C94.1082 57.3809 94.1082 57.3953 94.0974 57.4133L92.966 59.5299C92.9624 59.5336 92.9606 59.5426 92.9606 59.557V61.0781C92.9606 61.1142 92.9425 61.1323 92.9064 61.1323H92.495ZM97.92 57.4025C97.92 57.3664 97.938 57.3484 97.9741 57.3484H98.3855C98.4216 57.3484 98.4397 57.3664 98.4397 57.4025V61.0836C98.4397 61.1197 98.4216 61.1377 98.3855 61.1377H97.9741C97.938 61.1377 97.92 61.1197 97.92 61.0836V59.4758C97.92 59.4614 97.9128 59.4542 97.8984 59.4542H96.3556C96.3411 59.4542 96.3339 59.4614 96.3339 59.4758V61.0836C96.3339 61.1197 96.3159 61.1377 96.2798 61.1377H95.8684C95.8323 61.1377 95.8142 61.1197 95.8142 61.0836V57.4025C95.8142 57.3664 95.8323 57.3484 95.8684 57.3484H96.2798C96.3159 57.3484 96.3339 57.3664 96.3339 57.4025V58.9832C96.3339 58.9976 96.3411 59.0049 96.3556 59.0049H97.8984C97.9128 59.0049 97.92 58.9976 97.92 58.9832V57.4025ZM101.82 57.7436C101.82 57.7796 101.802 57.7977 101.766 57.7977H99.8446C99.8302 57.7977 99.8229 57.8049 99.8229 57.8193V58.9832C99.8229 58.9976 99.8302 59.0049 99.8446 59.0049H101.165C101.202 59.0049 101.22 59.0229 101.22 59.059V59.4C101.22 59.4361 101.202 59.4542 101.165 59.4542H99.8446C99.8302 59.4542 99.8229 59.4614 99.8229 59.4758V60.6667C99.8229 60.6812 99.8302 60.6884 99.8446 60.6884H101.766C101.802 60.6884 101.82 60.7064 101.82 60.7425V61.0836C101.82 61.1197 101.802 61.1377 101.766 61.1377H99.3574C99.3213 61.1377 99.3033 61.1197 99.3033 61.0836V57.4025C99.3033 57.3664 99.3213 57.3484 99.3574 57.3484H101.766C101.802 57.3484 101.82 57.3664 101.82 57.4025V57.7436ZM104.698 61.1377C104.67 61.1377 104.65 61.1251 104.639 61.0998L103.881 59.4812C103.877 59.4704 103.87 59.465 103.859 59.465H103.08C103.065 59.465 103.058 59.4722 103.058 59.4866V61.0836C103.058 61.1197 103.04 61.1377 103.004 61.1377H102.593C102.557 61.1377 102.539 61.1197 102.539 61.0836V57.4025C102.539 57.3664 102.557 57.3484 102.593 57.3484H104.049C104.265 57.3484 104.455 57.3935 104.617 57.4837C104.783 57.5739 104.911 57.7003 105.002 57.8627C105.092 58.0251 105.137 58.2127 105.137 58.4256C105.137 58.6783 105.07 58.893 104.937 59.0698C104.807 59.243 104.624 59.3603 104.39 59.4217C104.375 59.4289 104.372 59.4379 104.379 59.4487L105.164 61.0727C105.168 61.08 105.169 61.089 105.169 61.0998C105.169 61.1251 105.155 61.1377 105.126 61.1377H104.698ZM103.08 57.7977C103.065 57.7977 103.058 57.8049 103.058 57.8193V59.0319C103.058 59.0464 103.065 59.0536 103.08 59.0536H103.984C104.175 59.0536 104.329 58.9976 104.444 58.8858C104.56 58.7703 104.617 58.6187 104.617 58.431C104.617 58.2398 104.56 58.0864 104.444 57.9709C104.329 57.8554 104.175 57.7977 103.984 57.7977H103.08ZM108.376 57.7436C108.376 57.7796 108.358 57.7977 108.321 57.7977H106.4C106.385 57.7977 106.378 57.8049 106.378 57.8193V58.9832C106.378 58.9976 106.385 59.0049 106.4 59.0049H107.721C107.757 59.0049 107.775 59.0229 107.775 59.059V59.4C107.775 59.4361 107.757 59.4542 107.721 59.4542H106.4C106.385 59.4542 106.378 59.4614 106.378 59.4758V60.6667C106.378 60.6812 106.385 60.6884 106.4 60.6884H108.321C108.358 60.6884 108.376 60.7064 108.376 60.7425V61.0836C108.376 61.1197 108.358 61.1377 108.321 61.1377H105.913C105.876 61.1377 105.858 61.1197 105.858 61.0836V57.4025C105.858 57.3664 105.876 57.3484 105.913 57.3484H108.321C108.358 57.3484 108.376 57.3664 108.376 57.4025V57.7436Z" fill="#FA6458"/>
</svg>
